<!--?xml version="1.0" standalone="no"?-->
              <svg id="sw-js-blob-svg" viewBox="0 0 100 100" xmlns="http://www.w3.org/2000/svg" version="1.1">
                    <defs> 
                        <linearGradient id="sw-gradient" x1="0" x2="1" y1="1" y2="0">
                            <stop id="stop1" stop-color="rgba(0, 120, 170, 1)" offset="0%"></stop>
                            <stop id="stop2" stop-color="rgba(81, 196, 211, 1)" offset="100%"></stop>
                        </linearGradient>
                    </defs>
                <path fill="url(#sw-gradient)" d="M24.8,-29.7C31.5,-29.3,35.8,-21.1,37.2,-13C38.7,-4.8,37.3,3.4,34.5,11C31.7,18.5,27.6,25.3,21.6,27.1C15.6,28.9,7.8,25.6,2.8,21.7C-2.1,17.8,-4.3,13.3,-5.9,10.1C-7.5,6.9,-8.5,5,-13.1,1.7C-17.6,-1.6,-25.7,-6.3,-27.1,-11C-28.6,-15.7,-23.5,-20.5,-17.8,-21.3C-12.2,-22.1,-6.1,-18.9,1.5,-20.9C9.1,-23,18.1,-30.2,24.8,-29.7Z" width="100%" height="100%" transform="translate(50 50)" stroke-width="0" style="transition: all 0.3s ease 0s;" stroke="url(#sw-gradient)"></path>
              </svg>